<svg width="281" height="120" viewBox="0 0 281 120" fill="none" xmlns="http://www.w3.org/2000/svg">
<g clip-path="url(#clip0)">
<path fill-rule="evenodd" clip-rule="evenodd" d="M4.65175 57.7779H19.4684V52.4787H4.65175V35.0428H20.5021V29.7437H0V82.5642H20.6744V77.2651H4.65175V57.7779Z" fill="#271E63"/>
<path fill-rule="evenodd" clip-rule="evenodd" d="M57.3717 68.2052C57.3717 75.2138 54.9596 78.8035 49.9633 78.8035C44.967 78.8035 42.555 75.2138 42.555 67.8634V29.7437H38.2478V69.7437C38.2478 74.3591 39.2815 77.7779 41.1767 80.1711C43.2441 82.5642 46.173 83.9317 49.9633 83.9317C53.5813 83.9317 56.3379 82.7352 58.4054 80.342C60.4728 77.9488 61.5065 74.53 61.5065 69.9146V29.7437H57.1994V68.2052H57.3717Z" fill="#271E63"/>
<path fill-rule="evenodd" clip-rule="evenodd" d="M90.4506 54.1881H83.2146V35.0428H89.5892C95.4469 35.0428 97.5144 38.1198 97.5144 44.4445C97.6867 50.9403 95.7915 54.1881 90.4506 54.1881ZM103.372 77.6069C102.855 72.6497 102.511 68.889 102.511 66.1539C102.338 63.248 101.822 61.0257 100.788 59.4873C99.7541 57.9488 97.859 56.9232 95.1024 56.5813C100.443 55.5557 102.511 51.2822 102.511 43.9317C102.511 39.4873 102.166 36.0685 100.271 33.5044C98.3758 30.9403 94.7578 29.7437 89.5892 29.7437H78.7351V82.5642H83.3869V59.4873H91.1398C93.3795 59.4873 95.1024 60.342 96.3084 62.0514C97.5144 63.7608 98.2035 66.4958 98.2035 70.2565C98.2035 72.3078 98.3758 74.1881 98.5481 76.2394C98.7204 78.1198 99.065 80.342 99.5818 82.7351H105.095V81.5386C104.234 81.1967 103.717 80.0001 103.372 77.6069Z" fill="#271E63"/>
<path fill-rule="evenodd" clip-rule="evenodd" d="M138.863 71.6242C138.863 75.7268 135.418 79.1456 131.283 79.1456H130.938C126.803 79.1456 123.358 75.7268 123.358 71.6242V40.3422C123.358 36.2396 126.803 32.8208 130.938 32.8208H131.11C135.245 32.8208 138.691 36.2396 138.691 40.3422V71.6242H138.863ZM131.11 28.0345H130.938C124.219 28.0345 118.706 33.5046 118.706 40.1712V71.6242C118.706 78.2909 124.219 83.761 130.938 83.761H131.11C137.83 83.761 143.343 78.2909 143.343 71.6242V40.3422C143.515 33.5046 138.002 28.0345 131.11 28.0345Z" fill="#271E63"/>
<path fill-rule="evenodd" clip-rule="evenodd" d="M235.516 34.3592C232.071 34.3592 229.314 37.0942 229.314 40.3421V71.7951C229.314 75.0429 232.071 77.778 235.344 77.778C238.79 77.778 241.546 75.0429 241.546 71.7951V40.3421C241.546 36.9233 238.79 34.3592 235.516 34.3592Z" fill="#E40523"/>
<path fill-rule="evenodd" clip-rule="evenodd" d="M249.471 71.6241C249.471 79.1454 243.269 85.4702 235.516 85.4702C227.591 85.4702 221.389 79.3164 221.389 71.6241V40.342C221.389 32.8206 227.591 26.4958 235.344 26.4958H235.516C243.097 26.4958 249.471 32.6497 249.471 40.342V71.6241ZM207.778 71.6241C207.778 79.1454 201.576 85.1283 194.167 85.1283H181.074V28.2052H195.89C202.437 28.2052 207.95 33.5044 207.95 40.1711V71.6241H207.778ZM281 59.1454C281.172 39.3164 272.213 25.1283 254.296 16.0685C240.168 8.88901 225.179 5.12833 209.845 1.88046C201.403 0.000121076 192.789 -0.512699 184.175 0.342001C169.875 1.70952 159.021 10.2565 155.058 24.1027C151.096 37.607 152.474 50.9403 154.714 64.4446C156.781 76.0685 162.122 86.3249 169.358 95.5557C173.665 101.026 179.695 104.786 185.898 108.205C204.332 118.12 224.318 120.855 244.82 119.829C262.91 118.974 272.903 110.086 277.899 91.9659C280.139 83.5899 280.483 75.0429 281 66.154C281 64.1027 281 61.7095 281 59.1454Z" fill="#E40523"/>
<path fill-rule="evenodd" clip-rule="evenodd" d="M195.718 35.8976H188.654V77.607H193.995C197.268 77.607 200.025 74.872 200.025 71.6241V40.1711C200.025 37.7779 198.13 35.8976 195.718 35.8976Z" fill="#E40523"/>
</g>
<defs>
<clipPath id="clip0">
<rect width="281" height="120" fill="white"/>
</clipPath>
</defs>
</svg>
