<svg width="112" height="48" viewBox="0 0 112 48" fill="none" xmlns="http://www.w3.org/2000/svg">
<g clip-path="url(#clip0)">
<path fill-rule="evenodd" clip-rule="evenodd" d="M1.85408 23.1111H7.75966V20.9915H1.85408V14.0171H8.17167V11.8975H0V33.0257H8.24034V30.906H1.85408V23.1111Z" fill="#271E63"/>
<path fill-rule="evenodd" clip-rule="evenodd" d="M22.8669 27.2821C22.8669 30.0855 21.9056 31.5214 19.9142 31.5214C17.9227 31.5214 16.9614 30.0855 16.9614 27.1453V11.8975H15.2446V27.8975C15.2446 29.7436 15.6566 31.1111 16.412 32.0684C17.236 33.0257 18.4034 33.5727 19.9142 33.5727C21.3562 33.5727 22.4549 33.094 23.279 32.1368C24.103 31.1795 24.515 29.812 24.515 27.9658V11.8975H22.7983V27.2821H22.8669Z" fill="#271E63"/>
<path fill-rule="evenodd" clip-rule="evenodd" d="M36.0516 21.6752H33.1675V14.0171H35.7083C38.043 14.0171 38.8671 15.2479 38.8671 17.7778C38.9357 20.3761 38.1804 21.6752 36.0516 21.6752ZM41.2018 31.0428C40.9958 29.0599 40.8585 27.5556 40.8585 26.4616C40.7898 25.2992 40.5838 24.4103 40.1718 23.7949C39.7598 23.1795 39.0044 22.7693 37.9057 22.6325C40.0344 22.2222 40.8585 20.5128 40.8585 17.5727C40.8585 15.7949 40.7211 14.4274 39.9658 13.4017C39.2104 12.3761 37.7683 11.8975 35.7083 11.8975H31.3821V33.0257H33.2362V23.7949H36.3263C37.219 23.7949 37.9057 24.1368 38.3864 24.8205C38.8671 25.5043 39.1417 26.5983 39.1417 28.1026C39.1417 28.9231 39.2104 29.6752 39.2791 30.4958C39.3477 31.2479 39.4851 32.1368 39.6911 33.094H41.8885V32.6154C41.5452 32.4787 41.3392 32 41.2018 31.0428Z" fill="#271E63"/>
<path fill-rule="evenodd" clip-rule="evenodd" d="M55.3476 28.6496C55.3476 30.2907 53.9742 31.6582 52.3261 31.6582H52.1888C50.5407 31.6582 49.1673 30.2907 49.1673 28.6496V16.1368C49.1673 14.4958 50.5407 13.1283 52.1888 13.1283H52.2574C53.9055 13.1283 55.2789 14.4958 55.2789 16.1368V28.6496H55.3476ZM52.2574 11.2137H52.1888C49.5107 11.2137 47.3132 13.4018 47.3132 16.0684V28.6496C47.3132 31.3163 49.5107 33.5043 52.1888 33.5043H52.2574C54.9355 33.5043 57.133 31.3163 57.133 28.6496V16.1368C57.2016 13.4018 55.0042 11.2137 52.2574 11.2137Z" fill="#271E63"/>
<path fill-rule="evenodd" clip-rule="evenodd" d="M93.8713 13.7437C92.4979 13.7437 91.3992 14.8377 91.3992 16.1368V28.718C91.3992 30.0172 92.4979 31.1112 93.8026 31.1112C95.176 31.1112 96.2747 30.0172 96.2747 28.718V16.1368C96.2747 14.7693 95.176 13.7437 93.8713 13.7437Z" fill="#E40523"/>
<path fill-rule="evenodd" clip-rule="evenodd" d="M99.4335 28.6496C99.4335 31.6582 96.9614 34.1881 93.8712 34.1881C90.7124 34.1881 88.2403 31.7266 88.2403 28.6496V16.1368C88.2403 13.1283 90.7124 10.5984 93.8026 10.5984H93.8712C96.8927 10.5984 99.4335 13.0599 99.4335 16.1368V28.6496ZM82.8154 28.6496C82.8154 31.6582 80.3433 34.0513 77.3905 34.0513H72.1717V11.2821H78.0772C80.6867 11.2821 82.8841 13.4018 82.8841 16.0684V28.6496H82.8154ZM112 23.6582C112.069 15.7266 108.498 10.0513 101.356 6.42742C95.7253 3.55562 89.7511 2.05135 83.6395 0.752204C80.2747 6.67423e-05 76.8412 -0.205061 73.4077 0.136819C67.7081 0.683827 63.382 4.10263 61.8026 9.64109C60.2232 15.0428 60.7725 20.3761 61.6652 25.7778C62.4893 30.4274 64.618 34.53 67.5021 38.2223C69.2189 40.4103 71.6223 41.9146 74.0944 43.2821C81.442 47.2479 89.4077 48.3419 97.5794 47.9317C104.79 47.5898 108.773 44.0343 110.764 36.7864C111.657 33.436 111.794 30.0172 112 26.4616C112 25.6411 112 24.6838 112 23.6582Z" fill="#E40523"/>
<path fill-rule="evenodd" clip-rule="evenodd" d="M78.0086 14.359H75.1931V31.0428H77.3219C78.6266 31.0428 79.7253 29.9488 79.7253 28.6496V16.0684C79.7253 15.1111 78.9699 14.359 78.0086 14.359Z" fill="#E40523"/>
</g>
<defs>
<clipPath id="clip0">
<rect width="112" height="48" fill="white"/>
</clipPath>
</defs>
</svg>
